<?xml version="1.0" encoding="utf-8"?>
<!-- Generator: Adobe Illustrator 16.0.4, SVG Export Plug-In . SVG Version: 6.00 Build 0)  -->
<!DOCTYPE svg PUBLIC "-//W3C//DTD SVG 1.1//EN" "http://www.w3.org/Graphics/SVG/1.1/DTD/svg11.dtd">
<svg version="1.1" id="Layer_1" xmlns="http://www.w3.org/2000/svg" xmlns:xlink="http://www.w3.org/1999/xlink" x="0px" y="0px"
	 width="130.986px" height="128.728px" viewBox="0 0 130.986 128.728" enable-background="new 0 0 130.986 128.728"
	 xml:space="preserve">
<g>
	<path fill="#3E465B" d="M111.427,14.012H19.558c-2.916,0-5.3,2.384-5.3,5.301c0,2.914,2.384,5.298,5.3,5.298v-5.298h91.869v5.298
		c2.916,0,5.301-2.384,5.301-5.298C116.728,16.396,114.343,14.012,111.427,14.012z"/>
	<polygon fill="#F0EDE0" points="23.091,104.115 33.693,114.715 44.292,104.115 54.894,114.715 65.493,104.115 76.095,114.715 
		86.692,104.115 97.294,114.715 107.894,104.115 111.427,107.649 111.427,19.313 19.558,19.313 19.558,107.649 	"/>
	<path fill="#D5C3A5" d="M90.226,86.447H63.728c-0.977,0-1.768-0.788-1.768-1.766s0.791-1.768,1.768-1.768h26.498
		c0.977,0,1.768,0.79,1.768,1.768S91.202,86.447,90.226,86.447z"/>
	<path fill="#D5C3A5" d="M99.06,86.447c-0.459,0-0.916-0.194-1.254-0.512c-0.316-0.335-0.512-0.795-0.512-1.254
		c0-0.479,0.195-0.921,0.512-1.255c0.672-0.653,1.838-0.653,2.51,0c0.318,0.334,0.512,0.775,0.512,1.255
		c0,0.459-0.193,0.919-0.512,1.254C99.979,86.252,99.521,86.447,99.06,86.447z"/>
	<path fill="#D5C3A5" d="M99.06,61.713H72.562c-0.977,0-1.768-0.79-1.768-1.767s0.791-1.766,1.768-1.766H99.06
		c0.977,0,1.768,0.789,1.768,1.766S100.036,61.713,99.06,61.713z"/>
	<path fill="#D5C3A5" d="M99.06,74.08H81.394c-0.975,0-1.768-0.789-1.768-1.767c0-0.977,0.793-1.767,1.768-1.767H99.06
		c0.977,0,1.768,0.79,1.768,1.767C100.827,73.291,100.036,74.08,99.06,74.08z"/>
	<path fill="#D5C3A5" d="M67.261,74.08h-3.533c-0.977,0-1.768-0.789-1.768-1.767c0-0.977,0.791-1.767,1.768-1.767h3.533
		c0.975,0,1.766,0.79,1.766,1.767C69.026,73.291,68.235,74.08,67.261,74.08z"/>
	<path fill="#D5C3A5" d="M90.226,49.346H63.728c-0.977,0-1.768-0.79-1.768-1.767c0-0.978,0.791-1.767,1.768-1.767h26.498
		c0.977,0,1.768,0.789,1.768,1.767C91.993,48.556,91.202,49.346,90.226,49.346z"/>
	<path fill="#D5C3A5" d="M99.06,49.346c-0.459,0-0.916-0.193-1.254-0.512c-0.316-0.336-0.512-0.795-0.512-1.255
		c0-0.479,0.195-0.922,0.512-1.254c0.654-0.655,1.855-0.655,2.51,0c0.318,0.332,0.512,0.795,0.512,1.254
		c0,0.46-0.193,0.919-0.512,1.255C99.979,49.153,99.538,49.346,99.06,49.346z"/>
	<path fill="#D5C3A5" d="M65.493,61.713c-0.459,0-0.92-0.193-1.254-0.512c-0.318-0.337-0.512-0.778-0.512-1.255
		c0-0.479,0.193-0.921,0.512-1.254c0.67-0.655,1.854-0.655,2.508,0c0.318,0.333,0.514,0.774,0.514,1.254
		c0,0.477-0.195,0.918-0.514,1.255C66.413,61.52,65.952,61.713,65.493,61.713z"/>
	<path fill="#D5C3A5" d="M74.327,74.08c-0.459,0-0.92-0.194-1.254-0.511c-0.318-0.337-0.512-0.795-0.512-1.256
		c0-0.459,0.193-0.92,0.512-1.254c0.67-0.654,1.854-0.654,2.508,0c0.318,0.318,0.514,0.775,0.514,1.254
		c0,0.478-0.195,0.919-0.514,1.256C75.245,73.885,74.784,74.08,74.327,74.08z"/>
	<path fill="#119EDA" d="M46.059,58.181c0,0.976,0.792,1.766,1.767,1.766s1.767-0.79,1.767-1.766c0-4.267-3.04-7.835-7.065-8.656
		V47.58c0-0.978-0.793-1.767-1.768-1.767c-0.977,0-1.767,0.789-1.767,1.767v1.95c-1.928,0.393-3.686,1.416-4.979,2.947
		c-1.078,1.275-1.579,2.907-1.402,4.599c0.18,1.73,1.07,3.334,2.443,4.4l3.938,3.064v9.607c-2.052-0.731-3.533-2.675-3.533-4.975
		c0-0.979-0.792-1.767-1.767-1.767c-0.976,0-1.768,0.788-1.768,1.767c0,4.264,3.041,7.833,7.067,8.654v1.553
		c0,0.978,0.79,1.767,1.767,1.767c0.975,0,1.768-0.789,1.768-1.767v-1.559c1.926-0.392,3.683-1.416,4.978-2.947
		c1.081-1.278,1.58-2.911,1.403-4.601c-0.183-1.729-1.071-3.332-2.444-4.396l-3.937-3.063v-9.607
		C44.577,53.937,46.059,55.879,46.059,58.181z M44.294,68.666c0.616,0.479,1.018,1.201,1.098,1.976
		c0.078,0.724-0.131,1.417-0.584,1.953c-0.615,0.726-1.41,1.233-2.281,1.545v-6.853L44.294,68.666z M37.225,58.688
		c-0.619-0.48-1.02-1.203-1.101-1.978c-0.074-0.723,0.133-1.415,0.586-1.952c0.613-0.726,1.408-1.233,2.282-1.544v6.849
		L37.225,58.688z"/>
	<g>
		<path fill="#A5A5A4" d="M24.859,33.446c-0.46,0-0.919-0.194-1.254-0.513c-0.318-0.335-0.514-0.795-0.514-1.254
			c0-0.46,0.195-0.921,0.514-1.255c0.671-0.653,1.855-0.653,2.508,0c0.318,0.334,0.513,0.795,0.513,1.255
			c0,0.459-0.194,0.919-0.513,1.254C25.777,33.251,25.318,33.446,24.859,33.446z"/>
		<path fill="#A5A5A4" d="M97.595,31.679c0-0.973,0.775-1.768,1.766-1.768l0,0c0.973,0,1.768,0.795,1.768,1.768l0,0
			c0,0.972-0.795,1.767-1.768,1.767l0,0C98.37,33.446,97.595,32.651,97.595,31.679z M90.81,31.679c0-0.973,0.795-1.768,1.768-1.768
			l0,0c0.988,0,1.768,0.795,1.768,1.768l0,0c0,0.972-0.779,1.767-1.768,1.767l0,0C91.604,33.446,90.81,32.651,90.81,31.679z
			 M84.044,31.679c0-0.973,0.795-1.768,1.768-1.768l0,0c0.971,0,1.766,0.795,1.766,1.768l0,0c0,0.972-0.795,1.767-1.766,1.767l0,0
			C84.839,33.446,84.044,32.651,84.044,31.679z M77.276,31.679c0-0.973,0.779-1.768,1.768-1.768l0,0
			c0.973,0,1.768,0.795,1.768,1.768l0,0c0,0.972-0.795,1.767-1.768,1.767l0,0C78.056,33.446,77.276,32.651,77.276,31.679z
			 M70.493,31.679c0-0.973,0.795-1.768,1.768-1.768l0,0c0.988,0,1.766,0.795,1.766,1.768l0,0c0,0.972-0.777,1.767-1.766,1.767l0,0
			C71.288,33.446,70.493,32.651,70.493,31.679z M63.728,31.679c0-0.973,0.795-1.768,1.766-1.768l0,0
			c0.973,0,1.768,0.795,1.768,1.768l0,0c0,0.972-0.795,1.767-1.768,1.767l0,0C64.522,33.446,63.728,32.651,63.728,31.679z
			 M56.96,31.679c0-0.973,0.777-1.768,1.766-1.768l0,0c0.973,0,1.768,0.795,1.768,1.768l0,0c0,0.972-0.795,1.767-1.768,1.767l0,0
			C57.737,33.446,56.96,32.651,56.96,31.679z M50.175,31.679c0-0.973,0.795-1.768,1.766-1.768l0,0c0.99,0,1.767,0.795,1.767,1.768
			l0,0c0,0.972-0.777,1.767-1.767,1.767l0,0C50.97,33.446,50.175,32.651,50.175,31.679z M43.408,31.679
			c0-0.973,0.797-1.768,1.768-1.768l0,0c0.972,0,1.768,0.795,1.768,1.768l0,0c0,0.972-0.796,1.767-1.768,1.767l0,0
			C44.205,33.446,43.408,32.651,43.408,31.679z M36.642,31.679c0-0.973,0.778-1.768,1.768-1.768l0,0
			c0.972,0,1.767,0.795,1.767,1.768l0,0c0,0.972-0.795,1.767-1.767,1.767l0,0C37.42,33.446,36.642,32.651,36.642,31.679z
			 M29.859,31.679c0-0.973,0.793-1.768,1.767-1.768l0,0c0.989,0,1.768,0.795,1.768,1.768l0,0c0,0.972-0.778,1.767-1.768,1.767l0,0
			C30.652,33.446,29.859,32.651,29.859,31.679z"/>
		<path fill="#A5A5A4" d="M106.128,33.446c-0.479,0-0.92-0.194-1.256-0.529c-0.316-0.318-0.512-0.778-0.512-1.237
			c0-0.46,0.195-0.921,0.512-1.255c0.637-0.653,1.838-0.653,2.51,0c0.318,0.334,0.512,0.795,0.512,1.255
			c0,0.459-0.193,0.919-0.512,1.254C107.048,33.251,106.587,33.446,106.128,33.446z"/>
	</g>
</g>
</svg>
