<?xml version="1.0" encoding="utf-8"?>
<!-- Generator: Adobe Illustrator 16.0.4, SVG Export Plug-In . SVG Version: 6.00 Build 0)  -->
<!DOCTYPE svg PUBLIC "-//W3C//DTD SVG 1.1//EN" "http://www.w3.org/Graphics/SVG/1.1/DTD/svg11.dtd">
<svg version="1.1" id="Layer_1" xmlns="http://www.w3.org/2000/svg" xmlns:xlink="http://www.w3.org/1999/xlink" x="0px" y="0px"
	 width="130.986px" height="128.729px" viewBox="0 0 130.986 128.729" enable-background="new 0 0 130.986 128.729"
	 xml:space="preserve">
<g>
	<g>
		<path fill-rule="evenodd" clip-rule="evenodd" fill="#009FDD" d="M21.693,14.668c3.838,1.543,7.658,3.126,11.512,4.626
			c1.078,0.42,1.61,1.127,1.863,2.199c1.417,6.005,2.926,11.987,4.242,18.015c0.346,1.593,1.02,1.929,2.521,1.927
			c21.128-0.03,42.257,0.001,63.385,0.017c2.163,0.002,4.325-0.044,6.484,0.01c3.543,0.089,5.997,3.638,4.876,6.974
			c-2.221,6.588-4.527,13.148-6.617,19.776c-1.187,3.764-3.01,7.016-6.053,9.549c-0.201,0.079-0.398,0.157-0.383,0.428
			c0,0.001,0.029-0.038,0.029-0.038c-0.341-0.046-0.598,0.072-0.755,0.386l0.015-0.034c-1.631,0.672-3.197,1.537-5.035,1.576
			c-0.84,0.018-0.865,0.424-0.373,0.997c0.613,0.715,1.214,1.44,1.82,2.161c2.049,4.688,3.451,9.613,5.292,14.375
			c0.563,1.452,0.325,2.554-1.236,3.152c-2.458,0-4.913,0-7.37,0c1.496,1.135,2.846,2.334,3.957,3.788
			c1.16,2.383,1.643,4.788,0.477,7.345c-0.744,1.625-2.028,2.746-3.286,3.914c-0.21,0.13-0.504,0.203-0.375,0.56
			c0,0-0.02-0.122-0.02-0.12c-0.343,0.075-0.698,0.115-1.026,0.228c-4.227,1.458-8.486-0.3-10.401-4.3
			c-1.796-3.748-0.399-8.09,3.339-10.453c0.359-0.227,0.932-0.231,1.018-0.772c-9.205,0-18.387,0-27.769,0
			c4.531,2.934,6.083,6.081,5.025,9.896c-0.97,3.493-4.251,6.132-7.748,6.229c-3.41,0.095-6.811-2.309-8.015-5.642
			c-0.757-2.093-0.577-4.12,0.364-6.105c0.924-1.946,2.508-3.248,4.352-4.368c-0.635-0.142-1.209-0.142-1.783-0.142
			c-2.16-0.001-4.32,0.009-6.482-0.007c-1.232-0.01-2.203-0.564-2.23-1.846c-0.029-1.386,0.975-1.947,2.283-1.979
			c0.419-0.012,0.84-0.006,1.259-0.006c6.542-0.008,13.085-0.016,19.625-0.023c9.962-0.01,19.924-0.049,29.887,0.002
			c1.566,0.008,1.816-0.352,1.244-1.785c-1.127-2.834-2.035-5.752-3.148-8.592c-1.659-4.246-4.721-6.314-9.242-6.322
			c-9.602-0.017-19.205,0.003-28.807-0.014c-2.339-0.005-4.707,0.14-6.997-0.368c-5.213-1.156-7.514-5.11-8.668-9.79
			c-3.424-13.873-6.965-27.728-9.877-41.711c-0.957-4.6-3.051-6.926-7.278-8.05c-0.989-0.263-1.263-0.185-1.614,0.742
			c-1.209,3.188-4.873,4.391-7.685,2.6c-1.901-1.213-2.554-3.398-1.915-6.407C16.024,14.434,18.723,13.473,21.693,14.668z
			 M42.593,45.272c-1.417-0.006-1.867,0.203-1.465,1.791c1.914,7.543,3.617,15.142,5.537,22.684c1.349,5.301,3.236,6.639,8.689,6.64
			c13.445,0.003,26.888-0.052,40.332,0.029c4.543,0.028,7.73-2.014,9.243-6.085c2.815-7.578,5.29-15.283,7.88-22.944
			c0.479-1.415,0.021-2.032-1.619-2.024c-11.463,0.058-22.926,0.031-34.389,0.031c0-0.033,0-0.065,0-0.099
			C65.399,45.295,53.997,45.313,42.593,45.272z M54.505,108.714c-0.016,2.826,1.646,4.481,4.463,4.45
			c2.711-0.031,4.301-1.672,4.296-4.436c-0.007-2.747-1.608-4.333-4.382-4.333C56.093,104.394,54.52,105.946,54.505,108.714z
			 M97.106,108.804c0.027-2.761-1.557-4.382-4.309-4.409c-2.877-0.03-4.472,1.55-4.455,4.418c0.016,2.73,1.646,4.348,4.381,4.351
			C95.444,113.165,97.083,111.536,97.106,108.804z M19.243,20.806c0.766-0.031,1.32-0.695,1.365-1.426
			c0.059-0.941-0.722-1.339-1.528-1.388c-0.862-0.051-1.212,0.59-1.345,1.387C17.868,20.239,18.388,20.842,19.243,20.806z"/>
		<path fill-rule="evenodd" clip-rule="evenodd" fill="#009FDD" d="M103.553,78.149c-0.341-0.046-0.598,0.072-0.755,0.386
			C103.118,78.54,103.403,78.48,103.553,78.149z"/>
		<path fill-rule="evenodd" clip-rule="evenodd" fill="#009FDD" d="M103.907,77.76c-0.201,0.079-0.398,0.157-0.383,0.428
			C103.651,78.045,103.778,77.903,103.907,77.76z"/>
		<path fill-rule="evenodd" clip-rule="evenodd" fill="#009FDD" d="M87.058,115.809c-0.21,0.13-0.504,0.203-0.375,0.56
			C86.807,116.182,86.934,115.996,87.058,115.809z"/>
		<path fill-rule="evenodd" clip-rule="evenodd" fill="#009FDD" d="M99.876,47.135c-1.078,0.006-1.651,0.651-1.894,1.601
			c-1.968,7.697-3.931,15.398-5.858,23.105c-0.285,1.139,0.176,2.07,1.359,2.358c1.369,0.335,2.154-0.415,2.479-1.698
			c1.455-5.733,2.902-11.469,4.352-17.203c0.471-1.853,0.998-3.693,1.395-5.562C102.049,48.119,101.27,47.106,99.876,47.135z"/>
		<path fill-rule="evenodd" clip-rule="evenodd" fill="#009FDD" d="M59.592,71.567c-0.735-4.604-1.514-9.51-2.304-14.413
			c-0.418-2.6-0.879-5.192-1.274-7.794c-0.2-1.305-0.81-2.244-2.195-2.066c-1.466,0.188-1.9,1.275-1.676,2.667
			c1.194,7.384,2.379,14.769,3.579,22.152c0.211,1.306,0.772,2.339,2.336,2.138C59.442,74.073,59.733,73.082,59.592,71.567z"/>
		<path fill-rule="evenodd" clip-rule="evenodd" fill="#009FDD" d="M79.797,71.506c-0.127,1.655,0.228,2.61,1.605,2.753
			c1.453,0.152,2.081-0.777,2.233-2.038c0.771-6.421,1.51-12.847,2.258-19.271c0.131-1.13,0.27-2.26,0.365-3.393
			c0.109-1.273-0.475-2.181-1.746-2.27c-1.396-0.098-1.996,0.885-2.15,2.16c-0.364,3.031-0.727,6.063-1.08,9.097
			C80.765,63.007,80.26,67.469,79.797,71.506z"/>
		<path fill-rule="evenodd" clip-rule="evenodd" fill="#009FDD" d="M71.778,70.298c-0.342-6.934-0.687-13.869-1.025-20.803
			c-0.064-1.322-0.66-2.27-2.045-2.213c-1.379,0.057-1.93,1.04-1.865,2.365c0.367,7.533,0.727,15.067,1.119,22.598
			c0.066,1.226,0.723,2.049,2.053,2.016c1.373-0.033,1.829-0.934,1.838-2.168c0.006-0.599,0.002-1.197,0.002-1.796
			C71.829,70.297,71.805,70.298,71.778,70.298z"/>
	</g>
	<g>
		<path fill="#FFC627" d="M112.705,40.864c0.013,0-0.712,0-0.712,0v-19H97.928h0.016L87.69,21.875l-2.877-0.011h-10.82v12.071
			l2.791,6.646C86.708,40.586,102.744,40.864,112.705,40.864z"/>
		<path fill="#4FBA6F" d="M73.561,33.935l-3.58-9.165l-20.919,8.172l2.943,7.562c7.186-0.008,16.946-0.003,24.132,0L73.561,33.935z"
			/>
		<polygon fill="#4FBA6F" points="88.728,11.688 81.209,13.974 83.901,20.864 97.018,20.864 		"/>
	</g>
</g>
</svg>
