<?xml version="1.0" encoding="utf-8"?>
<!-- Generator: Adobe Illustrator 16.0.4, SVG Export Plug-In . SVG Version: 6.00 Build 0)  -->
<!DOCTYPE svg PUBLIC "-//W3C//DTD SVG 1.1//EN" "http://www.w3.org/Graphics/SVG/1.1/DTD/svg11.dtd">
<svg version="1.1" id="Layer_1" xmlns="http://www.w3.org/2000/svg" xmlns:xlink="http://www.w3.org/1999/xlink" x="0px" y="0px"
	 width="130.986px" height="128.728px" viewBox="0 0 130.986 128.728" enable-background="new 0 0 130.986 128.728"
	 xml:space="preserve">
<g>
	<path id="XMLID_12_" fill="#566280" d="M65.477,100.636c-19.995,0-36.264-16.27-36.264-36.265c0-19.994,16.27-36.261,36.264-36.261
		c19.996,0,36.263,16.268,36.263,36.261C101.739,84.367,85.473,100.636,65.477,100.636"/>
	<path id="XMLID_11_" fill="#FFFFFF" d="M65.477,38.47c-0.953,0-1.727-0.771-1.727-1.728V33.29c0-0.955,0.773-1.727,1.727-1.727
		s1.728,0.771,1.728,1.727v3.453C67.204,37.699,66.43,38.47,65.477,38.47"/>
	<path id="XMLID_10_" fill="#FFFFFF" d="M65.477,97.181c-0.953,0-1.727-0.771-1.727-1.727v-3.453c0-0.955,0.773-1.727,1.727-1.727
		s1.728,0.771,1.728,1.727v3.453C67.204,96.41,66.43,97.181,65.477,97.181"/>
	<path id="XMLID_9_" fill="#FFFFFF" d="M34.393,66.1c-0.953,0-1.726-0.771-1.726-1.729c0-0.953,0.772-1.725,1.726-1.725h3.454
		c0.953,0,1.727,0.772,1.727,1.725c0,0.957-0.773,1.729-1.727,1.729H34.393"/>
	<path id="XMLID_8_" fill="#FFFFFF" d="M93.105,66.1c-0.953,0-1.727-0.771-1.727-1.729c0-0.953,0.773-1.725,1.727-1.725h3.454
		c0.953,0,1.727,0.772,1.727,1.725c0,0.957-0.773,1.729-1.727,1.729H93.105"/>
	<path id="XMLID_7_" fill="#FFFFFF" d="M65.477,69.553c-3.809,0-6.906-3.098-6.906-6.907c0-3.81,3.098-6.907,6.906-6.907
		c3.81,0,6.907,3.098,6.907,6.907C72.384,66.455,69.286,69.553,65.477,69.553 M65.477,59.192c-1.904,0-3.454,1.549-3.454,3.454
		c0,1.905,1.55,3.454,3.454,3.454c1.905,0,3.453-1.549,3.453-3.454C68.93,60.741,67.382,59.192,65.477,59.192"/>
	<path id="XMLID_6_" fill="#FFFFFF" d="M65.477,59.192c-0.953,0-1.727-0.771-1.727-1.727V47.104c0-0.955,0.773-1.727,1.727-1.727
		s1.728,0.771,1.728,1.727v10.361C67.204,58.42,66.43,59.192,65.477,59.192"/>
	<path id="XMLID_5_" fill="#FFFFFF" d="M84.472,83.367c-0.442,0-0.884-0.168-1.221-0.506L67.918,67.529
		c-0.674-0.676-0.674-1.768,0-2.441c0.676-0.676,1.768-0.676,2.441,0l15.334,15.332c0.675,0.674,0.675,1.766,0,2.441
		C85.355,83.199,84.914,83.367,84.472,83.367"/>
	<path id="XMLID_4_" fill="#119EDA" d="M115.555,66.1c-0.954,0-1.727-0.771-1.727-1.729c0-26.659-21.691-48.35-48.352-48.35
		c-12.462,0-24.306,4.749-33.344,13.369c-0.69,0.659-1.785,0.634-2.442-0.057c-0.658-0.69-0.632-1.783,0.058-2.442
		c9.686-9.235,22.375-14.323,35.729-14.323c28.564,0,51.805,23.239,51.805,51.803C117.281,65.328,116.507,66.1,115.555,66.1"/>
	<path id="XMLID_3_" fill="#119EDA" d="M29.212,14.295c0-0.955,0.774-1.728,1.728-1.728s1.728,0.772,1.728,1.728v12.087h12.087
		c0.954,0,1.728,0.772,1.728,1.728c0,0.954-0.773,1.727-1.728,1.727H29.212V14.295z"/>
	<path id="XMLID_2_" fill="#119EDA" d="M66.444,116.16c-0.95,0-1.71-0.742-1.728-1.693c-0.018-0.949,0.743-1.744,1.692-1.76
		c0.95-0.02,1.744,0.742,1.761,1.691c0.018,0.967-0.742,1.742-1.691,1.762H66.444z M62.99,114.414
		c-0.069,0.898-0.829,1.588-1.727,1.588h-0.139v-0.016c-0.949-0.068-1.657-0.898-1.571-1.85c0.069-0.947,0.915-1.656,1.865-1.588
		C62.369,112.636,63.076,113.466,62.99,114.414 M71.814,115.796h-0.207c-0.863,0-1.606-0.639-1.71-1.521
		c-0.121-0.947,0.553-1.795,1.503-1.914c0.949-0.121,1.795,0.551,1.916,1.502c0.121,0.949-0.553,1.812-1.502,1.916V115.796
		L71.814,115.796z M57.844,113.896c-0.154,0.83-0.898,1.4-1.709,1.4c-0.104,0-0.207,0-0.311-0.02
		c-0.933-0.189-1.555-1.086-1.382-2.02c0.173-0.949,1.089-1.553,2.021-1.381C57.396,112.048,58.018,112.964,57.844,113.896
		 M77.098,114.865c-0.138,0.035-0.259,0.035-0.396,0.035c-0.777,0-1.502-0.537-1.676-1.33c-0.224-0.934,0.363-1.865,1.296-2.072
		s1.848,0.361,2.072,1.295C78.601,113.724,78.014,114.658,77.098,114.865 M52.767,112.843c-0.225,0.744-0.915,1.227-1.658,1.227
		c-0.155,0-0.328-0.018-0.5-0.068c-0.915-0.277-1.434-1.244-1.158-2.16c0.277-0.896,1.244-1.416,2.159-1.139
		C52.526,110.96,53.044,111.929,52.767,112.843 M82.244,113.396c-0.189,0.053-0.381,0.084-0.569,0.084
		c-0.709,0-1.382-0.445-1.624-1.154c-0.311-0.914,0.173-1.9,1.071-2.193c0.897-0.312,1.882,0.156,2.193,1.07
		C83.626,112.101,83.143,113.085,82.244,113.396 M47.829,111.273c-0.277,0.656-0.916,1.053-1.589,1.053
		c-0.225,0-0.449-0.035-0.674-0.121c-0.881-0.381-1.295-1.383-0.933-2.262c0.38-0.881,1.382-1.295,2.263-0.934
		C47.777,109.373,48.191,110.39,47.829,111.273 M87.218,111.392c-0.242,0.105-0.483,0.154-0.726,0.154c-0.656,0-1.278-0.361-1.571-1
		c-0.397-0.863-0.034-1.883,0.829-2.279c0.881-0.414,1.898-0.035,2.297,0.828C88.443,109.958,88.08,110.996,87.218,111.392
		 M43.08,109.183c-0.311,0.586-0.897,0.912-1.52,0.912c-0.276,0-0.553-0.068-0.812-0.221c-0.846-0.449-1.156-1.506-0.689-2.332
		c0.449-0.846,1.502-1.156,2.33-0.691C43.235,107.298,43.546,108.353,43.08,109.183 M91.949,108.89
		c-0.277,0.172-0.587,0.24-0.881,0.24c-0.588,0-1.157-0.293-1.484-0.846c-0.502-0.811-0.226-1.865,0.586-2.365
		c0.83-0.484,1.883-0.225,2.367,0.604C93.037,107.335,92.761,108.406,91.949,108.89 M38.573,106.626
		c-0.329,0.484-0.864,0.742-1.416,0.742c-0.346,0-0.674-0.084-0.985-0.293c-0.775-0.535-0.983-1.623-0.431-2.4
		c0.536-0.793,1.606-0.984,2.399-0.447C38.917,104.761,39.125,105.851,38.573,106.626 M96.388,105.919
		c-0.294,0.223-0.657,0.328-1.02,0.328c-0.535,0-1.054-0.225-1.399-0.691c-0.552-0.76-0.396-1.848,0.363-2.416
		c0.76-0.57,1.848-0.416,2.417,0.361C97.32,104.261,97.164,105.347,96.388,105.919L96.388,105.919 M34.359,103.621
		c-0.346,0.398-0.828,0.607-1.312,0.607c-0.396,0-0.794-0.139-1.122-0.416c-0.725-0.623-0.812-1.709-0.19-2.436
		c0.622-0.727,1.71-0.811,2.436-0.191C34.894,101.808,34.981,102.898,34.359,103.621 M100.514,102.501
		c-0.328,0.291-0.742,0.447-1.156,0.447c-0.467,0-0.933-0.191-1.277-0.553c-0.641-0.709-0.605-1.797,0.103-2.436v-0.016
		c0.69-0.641,1.796-0.588,2.435,0.104C101.273,100.755,101.222,101.843,100.514,102.501L100.514,102.501 M30.474,100.187
		c-0.329,0.328-0.76,0.482-1.192,0.482c-0.448,0-0.914-0.172-1.243-0.535c-0.656-0.691-0.639-1.777,0.052-2.436
		c0.691-0.654,1.778-0.639,2.436,0.053C31.2,98.441,31.165,99.527,30.474,100.187 M104.262,98.666
		c-0.329,0.398-0.812,0.588-1.295,0.588c-0.397,0-0.812-0.137-1.141-0.432c-0.708-0.639-0.777-1.727-0.138-2.436
		c0.622-0.725,1.71-0.775,2.436-0.154C104.83,96.869,104.9,97.958,104.262,98.666 M26.969,96.386
		c-0.329,0.242-0.692,0.363-1.071,0.363c-0.501,0-1.02-0.225-1.364-0.674c-0.588-0.742-0.45-1.83,0.311-2.416
		c0.76-0.588,1.83-0.449,2.417,0.311C27.849,94.71,27.71,95.8,26.969,96.386 M107.611,94.486c-0.346,0.467-0.863,0.725-1.416,0.725
		c-0.346,0-0.691-0.102-1.002-0.326c-0.776-0.553-0.949-1.641-0.396-2.418c0.552-0.76,1.64-0.949,2.417-0.396
		C107.991,92.64,108.164,93.71,107.611,94.486 M23.86,92.242c-0.294,0.174-0.604,0.26-0.915,0.26c-0.57,0-1.14-0.275-1.468-0.812
		c-0.501-0.811-0.259-1.883,0.553-2.383c0.812-0.502,1.882-0.24,2.383,0.555C24.914,90.669,24.671,91.742,23.86,92.242
		 M110.494,89.982c-0.31,0.551-0.897,0.861-1.501,0.861c-0.277,0-0.587-0.068-0.847-0.223c-0.829-0.467-1.123-1.521-0.656-2.35
		h0.018c0.467-0.83,1.52-1.123,2.348-0.639C110.686,88.097,110.979,89.152,110.494,89.982 M21.201,87.804
		c-0.242,0.121-0.5,0.174-0.76,0.174c-0.639,0-1.261-0.363-1.555-0.969c-0.414-0.863-0.068-1.898,0.795-2.312
		c0.846-0.414,1.899-0.07,2.314,0.793C22.409,86.353,22.046,87.39,21.201,87.804 M112.912,85.197
		c-0.293,0.641-0.915,1.037-1.588,1.037c-0.225,0-0.467-0.053-0.691-0.158c-0.863-0.377-1.261-1.396-0.88-2.277
		c0.38-0.863,1.398-1.26,2.278-0.881C112.896,83.298,113.293,84.318,112.912,85.197 M19.007,83.107
		c-0.189,0.07-0.396,0.105-0.587,0.105c-0.708,0-1.381-0.432-1.623-1.141c-0.328-0.9,0.121-1.881,1.019-2.211
		c0.898-0.328,1.899,0.137,2.211,1.035C20.354,81.794,19.906,82.781,19.007,83.107 M114.812,80.191
		c-0.242,0.723-0.915,1.189-1.641,1.189c-0.173,0-0.363-0.016-0.535-0.068c-0.898-0.293-1.398-1.277-1.105-2.175
		c0.276-0.914,1.26-1.418,2.158-1.123C114.604,78.307,115.105,79.275,114.812,80.191 M17.315,78.223
		c-0.138,0.033-0.275,0.051-0.414,0.053c-0.777,0-1.485-0.535-1.675-1.312c-0.241-0.932,0.328-1.865,1.243-2.109
		c0.933-0.227,1.865,0.346,2.106,1.262C18.8,77.047,18.23,77.98,17.315,78.223 M116.176,75.01c-0.154,0.812-0.88,1.363-1.675,1.363
		c-0.121,0-0.242,0-0.363-0.033c-0.932-0.193-1.536-1.105-1.329-2.039c0.19-0.932,1.105-1.537,2.038-1.33
		C115.779,73.162,116.384,74.078,116.176,75.01 M16.141,73.162c-0.087,0.018-0.173,0.018-0.241,0.018
		c-0.847,0-1.589-0.621-1.71-1.486c-0.139-0.932,0.519-1.814,1.468-1.951c0.932-0.137,1.812,0.535,1.951,1.469
		C17.747,72.16,17.091,73.023,16.141,73.162 M117.005,69.709c-0.087,0.895-0.847,1.555-1.709,1.555h-0.19
		c-0.949-0.104-1.641-0.953-1.537-1.9c0.104-0.949,0.949-1.643,1.9-1.537C116.418,67.912,117.108,68.775,117.005,69.709
		 M15.433,68.033c-0.932,0-1.692-0.744-1.727-1.658c-0.035-0.967,0.708-1.762,1.657-1.795c0.95-0.035,1.762,0.707,1.797,1.658
		c0.034,0.949-0.709,1.76-1.658,1.795H15.433z M117.281,64.371c0,0.951-0.776,1.729-1.727,1.729s-1.727-0.777-1.727-1.729
		c0-0.948,0.776-1.725,1.727-1.725S117.281,63.423,117.281,64.371"/>
</g>
</svg>
