<?xml version="1.0" encoding="utf-8"?>
<!-- Generator: Adobe Illustrator 16.0.4, SVG Export Plug-In . SVG Version: 6.00 Build 0)  -->
<!DOCTYPE svg PUBLIC "-//W3C//DTD SVG 1.1//EN" "http://www.w3.org/Graphics/SVG/1.1/DTD/svg11.dtd">
<svg version="1.1" id="Layer_1" xmlns="http://www.w3.org/2000/svg" xmlns:xlink="http://www.w3.org/1999/xlink" x="0px" y="0px"
	 width="130.986px" height="128.729px" viewBox="0 0 130.986 128.729" enable-background="new 0 0 130.986 128.729"
	 xml:space="preserve">
<g>
	<g>
		<path fill-rule="evenodd" clip-rule="evenodd" fill="#009FDD" d="M80.232,67.697c-2.971-0.084-5.518-0.936-8.004-1.971
			c-0.32-0.133-0.513-0.758-0.623-1.192c-3.3-12.973-6.58-25.951-9.869-38.927c-0.586-2.314-0.945-2.513-3.307-1.915
			c-9.695,2.453-19.389,4.905-29.082,7.358c-1.705,0.432-2.064,1.012-1.645,2.674c4.383,17.314,8.766,34.631,13.15,51.945
			c0.507,1.997,0.988,2.27,3.004,1.758c3.947-1,7.89-2.027,11.852-2.963c0.637-0.151,1.447-0.062,2.048,0.205
			c2.909,1.294,5.722,2.814,8.673,4c1.907,0.766,2.698,2.243,3.517,3.993c-1.899,0.481-3.729,0.944-5.56,1.407
			c-6.448,1.633-12.896,3.268-19.348,4.895c-5.072,1.278-8.926-1.046-10.219-6.15c-5.273-20.833-10.548-41.667-15.822-62.499
			c-1.203-4.755,1.176-8.776,5.906-9.976c10.826-2.742,21.652-5.484,32.48-8.222c5.178-1.31,9.025,0.979,10.33,6.132
			c4.066,16.064,8.133,32.13,12.199,48.193C80.002,66.791,80.09,67.136,80.232,67.697z M43.168,23.701
			c0.001,0.002,0.001,0.004,0.002,0.004c1.835-0.465,3.676-0.913,5.506-1.399c1.311-0.348,1.924-1.345,1.602-2.518
			c-0.307-1.112-1.31-1.679-2.559-1.369c-3.639,0.902-7.27,1.823-10.9,2.758c-1.332,0.343-1.96,1.31-1.674,2.479
			c0.287,1.18,1.284,1.731,2.631,1.406C39.578,24.627,41.371,24.156,43.168,23.701z"/>
		<path fill-rule="evenodd" clip-rule="evenodd" fill="#FFC627" d="M78.722,44.701c0.971,0.402,1.826,0.648,2.57,1.084
			c5.809,3.396,11.664,6.719,17.361,10.295c3.352,2.104,4.177,5.58,4.496,9.393c0.594,7.086,1.497,14.146,2.375,21.205
			c0.352,2.825,0.975,5.617,1.488,8.504c-7.331,1.855-14.698,3.72-22.246,5.63c-0.221-0.87-0.396-1.767-0.688-2.624
			c-0.123-0.363-0.43-0.832-0.752-0.933c-4.232-1.327-6.914-4.415-9.195-7.974c-0.173-0.271-0.375-0.54-0.473-0.84
			c-0.737-2.247-2.433-3.365-4.521-4.266c-3.772-1.625-7.468-3.434-11.16-5.237c-2.174-1.061-3.762-2.671-3.875-5.257
			c-0.161-3.674,2.734-6.391,6.752-6.132c1.688,0.109,3.424,0.574,4.994,1.222c3.688,1.523,7.305,3.223,11.277,3.888
			c1.988,0.333,3.988,0.53,5.929-0.332c1.763-0.784,2.685-2.173,2.813-4.036c0.211-3.05-0.858-5.672-2.885-7.933
			c-0.285-0.317-0.615-0.673-0.717-1.064c-1.203-4.643-2.368-9.296-3.539-13.946C78.701,45.239,78.724,45.117,78.722,44.701z"/>
		<path fill-rule="evenodd" clip-rule="evenodd" fill="#FFC627" d="M97.039,101.924c3.865-0.979,7.73-1.959,11.596-2.935
			c2.18-0.55,3.522,0.232,4.078,2.382c0.424,1.637,0.853,3.274,1.241,4.921c0.444,1.878-0.376,3.267-2.259,3.747
			c-7.96,2.032-15.924,4.049-23.894,6.048c-1.858,0.467-3.241-0.399-3.737-2.275c-0.441-1.675-0.869-3.353-1.272-5.037
			c-0.466-1.955,0.343-3.315,2.301-3.821C89.07,103.926,93.056,102.931,97.039,101.924z"/>
	</g>
</g>
</svg>
