<?xml version="1.0" encoding="utf-8"?>
<!-- Generator: Adobe Illustrator 16.0.4, SVG Export Plug-In . SVG Version: 6.00 Build 0)  -->
<!DOCTYPE svg PUBLIC "-//W3C//DTD SVG 1.1//EN" "http://www.w3.org/Graphics/SVG/1.1/DTD/svg11.dtd">
<svg version="1.1" id="Layer_1" xmlns="http://www.w3.org/2000/svg" xmlns:xlink="http://www.w3.org/1999/xlink" x="0px" y="0px"
	 width="130.986px" height="128.729px" viewBox="0 0 130.986 128.729" enable-background="new 0 0 130.986 128.729"
	 xml:space="preserve">
<g>
	<path fill="#4FBA6F" d="M105.963,45.241c-0.131-2.289-0.408-6.662-0.611-11.039c-0.041-0.88-0.348-1.271-1.176-1.569
		c-12.352-4.449-24.689-8.944-37.041-13.393c-0.508-0.183-1.197-0.185-1.705-0.001c-12.037,4.33-24.051,8.726-36.102,13.021
		c-1.492,0.532-2.092,1.167-2.217,2.837c-0.797,10.667-0.789,21.292,1.141,31.853c1.447,7.918,3.934,15.469,8.244,22.325
		c6.143,9.771,14.637,16.435,25.904,19.337c1.449,0.374,3.029,0.806,4.459,0.596c8.242-1.21,15.359-4.87,21.455-10.494
		c6.635-6.121,10.863-13.747,13.611-22.257C104.982,66.988,105.92,57.223,105.963,45.241z"/>
	<path fill-rule="evenodd" clip-rule="evenodd" fill="#FFFFFF" d="M79.568,55.933c0.541,0,0.971-0.012,1.4,0.002
		c2.557,0.08,4.695,2.083,4.715,4.624c0.051,6.609,0.049,13.218,0.002,19.827c-0.02,2.604-2.154,4.668-4.766,4.674
		c-9.779,0.023-19.557,0.023-29.338-0.001c-2.582-0.007-4.705-2.139-4.717-4.721c-0.031-6.542-0.035-13.085-0.002-19.627
		c0.012-2.648,2.129-4.707,4.777-4.781c0.398-0.011,0.799-0.002,1.271-0.002c0.027-0.35,0.066-0.64,0.068-0.929
		c0.004-2.73,0.004-5.462,0.002-8.193c-0.002-6.232,4.09-10.313,10.336-10.307c2.09,0.003,4.182,0.001,6.271,0.006
		c5.74,0.008,9.902,4.102,9.971,9.841c0.035,2.798,0.008,5.597,0.008,8.396C79.568,55.103,79.568,55.464,79.568,55.933z
		 M73.033,55.881c0-3.427,0.074-6.793-0.031-10.152c-0.051-1.613-1.439-2.721-3.094-2.74c-2.291-0.028-4.586-0.012-6.877-0.007
		c-2.305,0.005-3.545,1.243-3.562,3.572c-0.014,1.82,0.002,3.642,0.002,5.462c0.002,1.273,0.002,2.545,0.002,3.865
		C64.027,55.881,68.467,55.881,73.033,55.881z M64.26,73.941c0,0.674,0.002,1.347,0,2.021c-0.01,2.695-0.012,2.695,2.662,2.634
		c1.051-0.023,1.373-0.337,1.377-1.399c0.012-2.121,0.025-4.242-0.01-6.364c-0.01-0.592,0.17-0.961,0.629-1.35
		c1.727-1.462,1.877-4.002,0.402-5.692c-1.439-1.653-3.936-1.846-5.633-0.438c-1.721,1.427-2.059,4.071-0.457,5.653
		c0.945,0.936,1.111,1.86,1.035,3.018C64.226,72.66,64.26,73.302,64.26,73.941z"/>
</g>
</svg>
