<?xml version="1.0" encoding="utf-8"?>
<!-- Generator: Adobe Illustrator 16.0.4, SVG Export Plug-In . SVG Version: 6.00 Build 0)  -->
<!DOCTYPE svg PUBLIC "-//W3C//DTD SVG 1.1//EN" "http://www.w3.org/Graphics/SVG/1.1/DTD/svg11.dtd">
<svg version="1.1" id="Layer_1" xmlns="http://www.w3.org/2000/svg" xmlns:xlink="http://www.w3.org/1999/xlink" x="0px" y="0px"
	 width="130.986px" height="128.729px" viewBox="0 0 130.986 128.729" enable-background="new 0 0 130.986 128.729"
	 xml:space="preserve">
<g>
	<path fill="none" d="M52.459,18.774c0.007,0.122,0.013,0.235,0.021,0.349c0.03-0.123,0.076-0.24,0.133-0.349
		C52.56,18.774,52.511,18.774,52.459,18.774z"/>
	<path fill="none" d="M52.564,20.538c0.095,0,0.183,0,0.274,0c-0.131-0.146-0.235-0.316-0.305-0.503
		C52.544,20.202,52.553,20.369,52.564,20.538z"/>
	<path fill="none" d="M60.511,97.198c-2.626-0.063-4.898,2.163-4.914,4.815c-0.016,2.669,2.155,4.848,4.843,4.848
		c2.657,0,4.891-2.241,4.844-4.875C65.242,99.451,63.054,97.256,60.511,97.198z"/>
	<path fill="#009FDD" d="M88.26,86.497l0.002,0.015c-2.068,0-4.134,0-6.203,0v0.795c0,2.069,0,4.001,0,6.102
		c-14.558,0-29.134,0-43.962,0c0-23.018,0-45.946,0-69.023c14.644,0,29.22,0,43.943,0c0,5.33,0,7.647,0,13.133
		c-0.514,0.036-1.049,0.076-1.825,0.126v0.909c2.092-0.005,4.185-0.005,6.276-0.005v-0.892c0-0.788,0-1.486,0-2.179
		c0-5.682,0.009-8.36-0.006-14.042c-0.013-4.067-2.059-6.16-6.153-6.167c-13.515-0.024-27.031-0.02-40.546,0.007
		c-3.977,0.003-5.952,2.057-5.957,6.097c-0.012,13.708,0.016,27.416-0.019,41.126c-0.016,6.329-0.196,12.659-0.192,18.987
		c0.004,7.806,0.118,15.611,0.192,23.418c0.035,3.637,2.057,5.811,5.659,5.822c13.773,0.044,27.552,0.048,41.331,0
		c3.675-0.015,5.762-2.457,5.728-6.219c-0.051-5.663-0.006-12.249-0.006-18.009C87.189,86.497,87.677,86.497,88.26,86.497z
		 M52.459,18.774c0.053,0,0.102,0,0.154,0c0.261-0.503,0.78-0.852,1.386-0.852h13.323c0.866,0,1.569,0.703,1.569,1.568
		c0,0.866-0.703,1.567-1.569,1.567H53.998c-0.462,0-0.873-0.203-1.16-0.521c-0.092,0-0.179,0-0.274,0
		c-0.011-0.169-0.021-0.336-0.031-0.503c-0.063-0.169-0.103-0.352-0.103-0.543c0-0.127,0.02-0.25,0.048-0.368
		C52.472,19.009,52.466,18.896,52.459,18.774z M60.44,106.861c-2.688,0-4.859-2.179-4.843-4.848
		c0.016-2.652,2.288-4.879,4.914-4.815c2.543,0.058,4.73,2.253,4.772,4.788C65.331,104.62,63.097,106.861,60.44,106.861z"/>
</g>
<ellipse fill="#FFC627" cx="99.993" cy="103.864" rx="7.5" ry="3"/>
<ellipse fill="#EFB21B" cx="99.993" cy="102.364" rx="7.5" ry="3"/>
<ellipse transform="matrix(0.7876 0.6161 -0.6161 0.7876 86.1175 -44.4436)" fill="#FFC627" cx="107.531" cy="102.705" rx="7.5" ry="3"/>
<ellipse transform="matrix(0.7877 0.6161 -0.6161 0.7877 85.5798 -45.2631)" fill="#EFB21B" cx="108.455" cy="101.523" rx="7.5" ry="3"/>
<g>
</g>
<g>
	<path fill="#697692" d="M55.174,38.164c7.782,0,15.322,0,22.952,0c0-0.639,0-1.176,0-1.775c-7.656,0-15.197,0-22.865,0
		C55.233,36.972,55.209,37.466,55.174,38.164z"/>
	<path fill="#009FDD" d="M60.366,99.251c-1.458,0.027-2.747,1.277-2.798,2.712c-0.054,1.489,1.29,2.9,2.798,2.939
		c1.489,0.034,2.873-1.325,2.877-2.842C63.251,100.515,61.927,99.224,60.366,99.251z"/>
	<path fill="#697692" d="M104.764,41.553c-5.55-0.02-11.097-0.005-16.647-0.005c-0.54,0-1.085,0-1.626,0
		c-2.092,0-4.185,0-6.276,0.005c-8.206,0-16.407,0.004-24.61-0.04c-1.191-0.007-2.523-0.226-3.53-0.803
		c-1.654-0.949-2.351-2.605-1.9-4.542c0.478-2.03,2.246-3.378,4.487-3.386c7.378-0.031,14.757-0.007,22.137-0.016
		c0.438,0,0.882-0.086,1.363-0.137c0-0.588,0-1.085,0-1.776c-8.323,0-16.414-0.094-24.503,0.048
		c-3.171,0.054-5.573,3.104-5.569,6.45c0.012,13.899,0.032,27.795,0.039,41.69c0.004,4.882,2.563,7.46,7.469,7.465
		c8.821,0.004,17.642,0.004,26.462,0.004c2.069,0,4.135,0,6.203,0c5.498,0,10.999,0,16.497,0c4.902,0,7.514-2.57,7.521-7.461
		c0.017-9.993,0.017-19.981,0-29.97C112.273,44.237,109.599,41.569,104.764,41.553z M106.432,78.801
		c-2.472-0.294-1.12-1.987-1.551-3.168c0.709,0.04,1.306,0.075,2.113,0.118C106.791,76.876,106.61,77.839,106.432,78.801z
		 M107.563,52.361c-1.165-0.455-2.168-0.545-2.368-0.995c-0.239-0.546,0.2-1.389,0.345-2.105c0.282,0.039,0.567,0.078,0.851,0.118
		C106.692,50.15,106.995,50.922,107.563,52.361z M97.127,80.799c-1.015,0-1.841,0-2.676,0c-0.687-1.944-0.501-2.096,2.531-1.822
		C97.025,79.52,97.071,80.104,97.127,80.799z M94.196,47.941c0.843-0.294,1.736-0.432,2.799-0.663
		c0.047,0.893,0.069,1.438,0.116,2.305c-1.085-0.146-2.003-0.22-2.88-0.439C94.114,49.113,94.07,47.983,94.196,47.941z
		 M103.094,80.869c-1.111,0-2.058,0-3.122,0c-0.056-0.549-0.114-1.109-0.169-1.646C102.385,78.344,102.715,78.501,103.094,80.869z
		 M98.318,70.237c-2.899-0.192-4.307-2.111-4.354-5.047c-0.019-1.306-0.047-2.609,0.012-3.914c0.105-2.399,1.764-4.42,4.067-4.511
		c3.962-0.156,7.932-0.047,12.064-0.047c0,4.64,0,8.989,0,13.585C106.106,70.303,102.198,70.5,98.318,70.237z M102.844,49.383
		c-0.438,0.055-0.756,0.121-1.073,0.125c-0.513,0-1.029-0.04-1.528-0.063c-0.558-2.14-0.302-2.309,2.705-1.751
		C102.914,48.222,102.88,48.771,102.844,49.383z M90.501,78.752c0.329,0.619,0.654,1.24,0.983,1.859
		c-0.267,0.234-0.533,0.474-0.8,0.708c-0.693-0.463-1.387-0.921-2.08-1.385C89.238,79.54,89.87,79.149,90.501,78.752z
		 M88.377,48.418c-0.019-0.287,0.987-0.834,1.575-0.933c1.524-0.254,1.474,0.722,1.127,2.073
		C90.05,49.144,88.513,50.448,88.377,48.418z M82.862,47.001c1.036,0.525,1.857,0.944,2.682,1.362c-0.529,0.385-1.016,1-1.595,1.105
		C82.495,49.739,82.369,48.826,82.862,47.001z M85.359,80.845c-0.872,0-1.63,0-2.608,0c-0.046-0.585-0.087-1.168-0.127-1.729
		C85.371,78.593,85.559,78.705,85.359,80.845z M54.982,80.559c-0.584-0.074-1.117-0.541-1.669-0.835
		c0.94-0.354,1.884-0.709,2.868-1.08C56.765,80.335,56.001,80.688,54.982,80.559z M56.256,47.247c0,0.975,0,1.524,0,2.359
		c-1.015-0.158-1.889-0.231-2.708-0.478c-0.141-0.043-0.18-1.165-0.055-1.211C54.289,47.623,55.151,47.494,56.256,47.247z
		 M61.028,47.454c0.318,0.004,0.635,0.044,1.082,0.079c0.035,0.626,0.062,1.179,0.099,1.86c-1.016,0-1.897,0-2.924,0
		c-0.032-0.595-0.063-1.144-0.106-1.943C60.003,47.45,60.514,47.443,61.028,47.454z M62.252,80.748
		c-1.055,0.098-1.866,0.172-2.653,0.247c-0.49-2.337-0.364-2.427,2.504-1.944C62.145,79.54,62.193,80.073,62.252,80.748z
		 M66.929,78.801c0.421,0.035,1.177,0.782,1.113,1.026c-0.447,1.673-1.786,0.916-2.888,1.019
		C64.79,79.199,65.64,78.681,66.929,78.801z M65.12,49.417c0-0.65,0-1.199,0-1.861c0.92,0,1.795,0,2.816,0
		c0.052,0.561,0.103,1.105,0.17,1.861C66.966,49.417,66.091,49.417,65.12,49.417z M73.866,49.368c-0.957,0-1.876,0-2.896,0
		c0-0.593,0-1.146,0-1.804c0.983,0,1.913,0,2.896,0C73.866,48.203,73.866,48.708,73.866,49.368z M73.883,79.775
		c0.007,0.311-0.044,0.623-0.075,1.036c-1.066,0.049-1.893,0.088-2.717,0.133c-0.355-1.968,0.127-2.313,2.671-1.866
		C73.8,79.29,73.873,79.533,73.883,79.775z M76.836,79.87c0.507-0.334,0.988-0.889,1.524-0.957c1.466-0.176,1.337,0.795,0.883,2.501
		C78.267,80.791,77.549,80.329,76.836,79.87z M77.019,49.375c-0.069-0.095-0.202-0.189-0.206-0.291
		c-0.025-0.438-0.013-0.886-0.013-1.552c0.996,0,1.815,0,2.622,0C79.975,49.571,79.831,49.68,77.019,49.375z"/>
</g>
<circle fill="#697692" cx="103.549" cy="63.78" r="4.434"/>
<g>
</g>
<g>
	<path fill="#9BC65D" d="M69.085,39.922c1.716-1.351,2.966-3.531,3.047-6.131l11.404-3.71l11.443-3.725
		c1.619,2.182,3.849,3.177,6.111,3.206l1.929,5.927l-0.009,0.003c-1.386,1.076-2.443,2.693-2.867,4.602h6.777
		c0.079-0.527,0.054-1.075-0.121-1.613l-4.42-13.579c-0.606-1.869-2.631-2.858-4.506-2.248l-30.236,9.836
		c-1.875,0.611-2.929,2.603-2.321,4.471l1.019,3.132h2.807L69.085,39.922z"/>
	<path fill="#FFFFFF" d="M103.01,35.492l0.009-0.003l-1.929-5.927c-2.263-0.029-4.492-1.024-6.111-3.206l-11.443,3.725l0.536,1.651
		c3.326-1.083,6.894,0.731,7.973,4.05c0.478,1.47,0.389,2.985-0.143,4.312h8.241C100.567,38.185,101.625,36.568,103.01,35.492z"/>
	<path fill="#FFFFFF" d="M80.019,39.696c-1.08-3.319,0.733-6.885,4.053-7.964l-0.536-1.651l-11.404,3.71
		c-0.081,2.6-1.331,4.78-3.047,6.131l0.057,0.172h11.029C80.12,39.962,80.064,39.832,80.019,39.696z"/>
	<path fill="#FFFFFF" d="M88.962,38.327c-0.326-1.007-1.057-1.438-2.528-1.476c-1.06-0.056-1.52-0.156-1.641-0.526
		c-0.102-0.316,0.031-0.696,0.757-0.933c0.798-0.26,1.396-0.17,1.718-0.141l-0.08-1.365c-0.428-0.055-0.992-0.042-1.723,0.153
		l-0.317-0.976l-1.095,0.357l0.344,1.055c-1.115,0.621-1.56,1.611-1.243,2.586c0.352,1.08,1.346,1.371,2.661,1.387
		c0.91,0.008,1.35,0.159,1.489,0.584c0.146,0.443-0.205,0.824-0.839,1.03c-0.041,0.013-0.081,0.018-0.122,0.029h2.361
		C89.065,39.549,89.155,38.921,88.962,38.327z"/>
	<path fill="#9BC65D" d="M80.019,39.696c0.045,0.137,0.101,0.267,0.151,0.398h6.172c0.041-0.012,0.081-0.017,0.122-0.029
		c0.634-0.207,0.984-0.587,0.839-1.03c-0.14-0.426-0.579-0.577-1.489-0.584c-1.315-0.016-2.31-0.307-2.661-1.387
		c-0.316-0.976,0.128-1.966,1.243-2.586l-0.344-1.055l1.095-0.357l0.317,0.976c0.73-0.194,1.295-0.208,1.723-0.153l0.08,1.365
		c-0.321-0.029-0.92-0.119-1.718,0.141c-0.726,0.236-0.858,0.617-0.757,0.933c0.121,0.37,0.581,0.47,1.641,0.526
		c1.472,0.038,2.202,0.468,2.528,1.476c0.193,0.594,0.104,1.222-0.258,1.767h3.198c0.531-1.328,0.62-2.843,0.143-4.312
		c-1.079-3.318-4.646-5.133-7.973-4.05C80.753,32.811,78.939,36.377,80.019,39.696z"/>
</g>
</svg>
